# xmcd
#
# Track frame offsets:
#	150
#	21750
#	40932
#	61105
#	80285
#	96775
#	119145
#	141717
#	160410
#	176827
#
# Disc length: 2647
#
# Revision: 1
# Processed by: cddbd v1.5.1PL0 Copyright (c) Steve Scherf et al.
# Submitted via: CDex 1.50
# Normalized: r0:TRMNUM
#
DISCID=8b0a550a
DTITLE=坂本冬美 - 冬美ルネッサンス
DYEAR=2001
DGENRE=Misc
TTITLE0=凛として
TTITLE1=待ったなしだよ人生は
TTITLE2=雪の花
TTITLE3=日々是好日
TTITLE4=北の挽歌
TTITLE5=呼人駅
TTITLE6=天地無用
TTITLE7=冬美の三度笠
TTITLE8=ぞっこん惚れ
TTITLE9=うりずんの頃
EXTD=YEAR: 2001
EXTT0=
EXTT1=
EXTT2=
EXTT3=
EXTT4=
EXTT5=
EXTT6=
EXTT7=
EXTT8=
EXTT9=
PLAYORDER=
